<?xml version="1.0" encoding="UTF-8"?>
<svg id="Layer_2" data-name="Layer 2" xmlns="http://www.w3.org/2000/svg" viewBox="0 0 2536.83 663.6">
  <defs>
    <style>
      .cls-1 {
        fill: #016430;
      }

      .cls-2 {
        fill: #01b459;
      }
    </style>
  </defs>
  <path class="cls-1" d="M0,216.3c0-7,2.33-12.72,7-17.15,4.67-4.43,10.27-6.65,16.8-6.65h28c7,0,12.72,2.22,17.15,6.65,4.43,4.43,6.65,10.15,6.65,17.15v9.8c21-28.47,50.63-42.7,88.9-42.7,43.4,0,76.53,17.27,99.4,51.8,21.93-34.53,55.3-51.8,100.1-51.8,35.93,0,65.8,11.2,89.6,33.6,23.8,22.4,35.7,50.17,35.7,83.3v183.4c0,6.53-2.22,12.13-6.65,16.8s-9.92,7-16.45,7h-28c-7,0-12.72-2.33-17.15-7s-6.65-10.27-6.65-16.8v-161.7c0-19.13-6.3-35-18.9-47.6-12.6-12.6-28.23-18.9-46.9-18.9s-34.3,6.42-46.9,19.25-18.9,28.58-18.9,47.25v161.7c0,6.53-2.33,12.13-7,16.8-4.67,4.67-10.27,7-16.8,7h-28c-6.53,0-12.13-2.33-16.8-7-4.67-4.67-7-10.27-7-16.8v-161.7c0-19.13-6.3-35-18.9-47.6-12.6-12.6-28.23-18.9-46.9-18.9s-34.3,6.42-46.9,19.25-18.9,28.58-18.9,47.25v161.7c0,6.53-2.22,12.13-6.65,16.8s-10.15,7-17.15,7h-28c-6.53,0-12.13-2.33-16.8-7-4.67-4.67-7-10.27-7-16.8V216.3Z"/>
  <path class="cls-1" d="M587.65,469c-28.7-31.73-43.05-71.4-43.05-119s14.47-86.68,43.4-118.65c28.93-31.97,64.63-47.95,107.1-47.95,38.27,0,71.17,13.3,98.7,39.9v-7c0-7,2.22-12.72,6.65-17.15,4.43-4.43,10.15-6.65,17.15-6.65h28c6.53,0,12.02,2.22,16.45,6.65,4.43,4.43,6.65,10.15,6.65,17.15v267.4c0,6.53-2.22,12.13-6.65,16.8s-9.92,7-16.45,7h-28c-7,0-12.72-2.33-17.15-7-4.43-4.67-6.65-10.27-6.65-16.8v-6.3c-27.53,26.13-60.43,39.2-98.7,39.2-42.93,0-78.75-15.87-107.45-47.6ZM647.5,285.25c-16.33,17.5-24.5,39.08-24.5,64.75s8.17,47.25,24.5,64.75c16.33,17.5,36.4,26.25,60.2,26.25s43.87-8.75,60.2-26.25c16.33-17.5,24.5-39.08,24.5-64.75s-8.17-47.25-24.5-64.75c-16.33-17.5-36.4-26.25-60.2-26.25s-43.87,8.75-60.2,26.25Z"/>
  <path class="cls-1" d="M943.6,500.5c-4.67-4.67-7-10.27-7-16.8V216.3c0-7,2.33-12.72,7-17.15,4.67-4.43,10.27-6.65,16.8-6.65h28c7,0,12.72,2.22,17.15,6.65,4.43,4.43,6.65,10.15,6.65,17.15v14.7c20.53-27.07,47.37-42.47,80.5-46.2,15.87,0,23.8,7.47,23.8,22.4v37.8c0,11.2-7.47,16.8-22.4,16.8-1.87-.47-4.9-.7-9.1-.7-20.53,0-37.8,7-51.8,21s-21,31.27-21,51.8v149.8c0,6.53-2.22,12.13-6.65,16.8-4.43,4.67-10.15,7-17.15,7h-28c-6.53,0-12.13-2.33-16.8-7Z"/>
  <path class="cls-1" d="M1142.39,198.8c2.8-4.2,7.47-6.3,14-6.3h30.8c6.53,0,12.95,2.1,19.25,6.3,6.3,4.2,10.62,9.33,12.95,15.4l72.1,190.4,73.5-190.4c2.33-6.07,6.65-11.2,12.95-15.4,6.3-4.2,12.72-6.3,19.25-6.3h30.8c7,0,11.9,1.98,14.7,5.95s3.03,9.22.7,15.75l-137.9,343.7c-13.53,34.53-30.68,60.08-51.45,76.65-20.77,16.57-46.55,26.25-77.35,29.05-15.87,0-23.8-7.47-23.8-22.4v-25.2c0-6.53,2.22-12.13,6.65-16.8,4.43-4.67,9.92-7.23,16.45-7.7,16.33-2.33,29.52-8.05,39.55-17.15s18.78-22.98,26.25-41.65l12.6-32.2-112.7-286.3c-2.33-6.07-2.1-11.2.7-15.4Z"/>
  <path class="cls-2" d="M1508.14,469c-28.7-31.73-43.05-71.4-43.05-119s14.47-86.68,43.4-118.65c28.93-31.97,64.63-47.95,107.1-47.95,38.27,0,71.17,13.3,98.7,39.9V23.8c0-7,2.22-12.72,6.65-17.15,4.43-4.43,10.15-6.65,17.15-6.65h28c6.53,0,12.02,2.22,16.45,6.65,4.43,4.43,6.65,10.15,6.65,17.15v459.9c0,6.53-2.22,12.13-6.65,16.8s-9.92,7-16.45,7h-28c-7,0-12.72-2.33-17.15-7s-6.65-10.27-6.65-16.8v-6.3c-27.53,26.13-60.43,39.2-98.7,39.2-42.93,0-78.75-15.87-107.45-47.6ZM1567.99,285.25c-16.33,17.5-24.5,39.08-24.5,64.75s8.17,47.25,24.5,64.75,36.4,26.25,60.2,26.25,43.87-8.75,60.2-26.25,24.5-39.08,24.5-64.75-8.17-47.25-24.5-64.75-36.4-26.25-60.2-26.25-43.87,8.75-60.2,26.25Z"/>
  <path class="cls-2" d="M1892.08,231c31.73-31.73,71.63-47.6,119.7-47.6s87.27,15.87,119,47.6c31.73,31.73,47.6,71.4,47.6,119s-15.87,87.27-47.6,119c-31.73,31.73-71.4,47.6-119,47.6s-87.97-15.87-119.7-47.6-47.6-71.4-47.6-119,15.87-87.27,47.6-119ZM1948.43,414.75c17.03,17.5,38.15,26.25,63.35,26.25s45.5-8.75,62.3-26.25,25.2-39.08,25.2-64.75-8.4-47.25-25.2-64.75-37.57-26.25-62.3-26.25-46.32,8.75-63.35,26.25-25.55,39.08-25.55,64.75,8.52,47.25,25.55,64.75Z"/>
  <path class="cls-2" d="M2489.87,303.8c-3.73.93-6.3,1.4-7.7,1.4-10.27,0-18.9-4.67-25.9-14-16.8-21.47-39.43-32.2-67.9-32.2-24.73,0-45.62,8.75-62.65,26.25s-25.55,39.08-25.55,64.75,8.52,47.25,25.55,64.75,37.92,26.25,62.65,26.25c27.53,0,50.17-10.73,67.9-32.2,7-9.33,15.63-14,25.9-14,1.4,0,3.97.47,7.7,1.4l31.5,9.8c7,1.87,11.67,5.6,14,11.2,2.33,5.6,1.87,11.2-1.4,16.8-14.47,25.67-34.53,45.85-60.2,60.55-25.67,14.7-54.13,22.05-85.4,22.05-47.6,0-87.27-15.87-119-47.6s-47.6-71.4-47.6-119,15.87-87.27,47.6-119,71.4-47.6,119-47.6c31.27,0,59.73,7.35,85.4,22.05,25.67,14.7,45.73,34.88,60.2,60.55,3.27,5.6,3.73,11.2,1.4,16.8-2.33,5.6-7,9.33-14,11.2l-31.5,9.8Z"/>
</svg>